<?xml version="1.0" encoding="UTF-8"?><svg id="a" xmlns="http://www.w3.org/2000/svg" viewBox="0 0 444 131.29"><path id="b" d="M377.5,78.6c-12.7-8.4-16.2-25.4-7.8-38.1,8.2-12.7,25.2-16.2,37.9-7.8,12.7,8.2,16.2,25.2,8,37.9-.6,.7-1,1.4-1.5,2.1l-15-14.9c-1.8-1.8-4.7-1.8-6.4,0-1.8,1.7-1.8,4.6,0,6.4l14.5,14.5c-8.7,5.6-20.3,5.9-29.7-.1Zm43.1,.5c.8-1.1,1.8-2.2,2.5-3.5,11.2-16.9,6.4-39.6-10.5-50.6-16.9-11.2-39.6-6.4-50.6,10.5-11.2,16.9-6.4,39.6,10.5,50.6,13,8.6,29.4,7.8,41.3-.7l5.7,5.6c1.8,1.8,4.6,1.8,6.4,0h0c1.8-1.8,1.8-4.6,0-6.4l-5.3-5.5Z" style="fill:#fff;"/><path id="c" d="M196.1,58.2c-1.3,12.7-11.6,23.1-24.4,24.4-17.4,1.8-31.6-12.6-30-30,1.3-12.7,11.6-23.1,24.4-24.4,17.4-1.7,31.8,12.8,30,30Zm.1-26.9c-7-8-17.6-12.9-29.3-12.3-18.4,1-33.3,15.8-34.4,34.2-1.3,21.1,15.6,38.6,36.4,38.6,10.9,0,20.7-4.8,27.3-12.3v14.6c0,13.4-10.8,26.2-23.9,27.9-16.5,1.8-30.5-10.9-30.7-27,0-2.2-1.5-4.2-3.6-4.6-2.9-.6-5.5,1.7-5.5,4.5,0,21,17.8,37.8,39.1,36.3,18.6-1.3,33.8-18.4,33.8-37.1V57.3c0-5.9-1.1-11.7-3.6-17.1-1.4-3.1-3.2-6.2-5.6-8.9Z" style="fill:#fff;"/><path id="d" d="M349.9,19h-17.5V4.6c0-2.5-2-4.6-4.6-4.6s-4.5,2.1-4.5,4.6V87.7c0,2.5,2,4.6,4.5,4.6,2.7,0,4.6-2.1,4.6-4.6V28.1h17.5c2.5,0,4.5-2,4.5-4.5s-2-4.6-4.5-4.6Z" style="fill:#fff;"/><path id="e" d="M253.8,83.2c-15.1,0-27.6-12.3-27.6-27.6s12.5-27.6,27.6-27.6,27.6,12.3,27.6,27.6h0c0,15.3-12.3,27.6-27.6,27.6Zm27.6-51.8c-6.8-7.8-16.6-12.5-27.8-12.5-18.9,.1-34.9,14.9-36.4,33.7-1.7,21.7,15.3,39.7,36.6,39.7,11.1,0,20.9-4.8,27.6-12.3v7.5c0,2.4,1.7,4.5,4,4.8,2.8,.3,5.2-1.7,5.2-4.4V55.7h0c0-8.7-3.1-17.1-8.8-23.7-.1-.2-.3-.4-.4-.6Z" style="fill:#fff;"/><path id="f" d="M307,92.4h0c-2.5,0-4.6-2.1-4.6-4.6V23.6c0-2.5,2.1-4.6,4.6-4.6h0c2.5,0,4.5,2.1,4.5,4.6V87.7c0,2.5-2,4.7-4.5,4.7Z" style="fill:#fff;"/><path id="g" d="M311.6,4.6c0,2.5-2,4.5-4.5,4.5s-4.6-2-4.6-4.5c0-2.7,2.1-4.6,4.6-4.6s4.5,2,4.5,4.6Z" style="fill:#fff;"/><path id="h" d="M56.4,113.2h-.1c-26.1,0-47.2-21.1-47.2-47.3S30.3,18.7,56.3,18.7h0c2.5,0,4.6-2.1,4.6-4.6s-2.1-4.5-4.5-4.6h-.1C25.2,9.6,0,34.8,0,65.9s25.2,56.4,56.4,56.4c2.5,0,4.5-2,4.5-4.5,0-2.7-2-4.6-4.5-4.6Z" style="fill:#fff;"/><path id="i" d="M56.4,122.3c-2.7,0-4.6-2-4.6-4.5v-49c0-2.5,2-4.6,4.6-4.6s4.5,2.1,4.5,4.6v49c0,2.5-2,4.5-4.5,4.5Z" style="fill:#fff;"/><path id="j" d="M94.2,106.6c-1.8,1.8-4.8,1.8-6.4,0l-34.7-34.6c-1.7-1.8-1.7-4.6,0-6.4,1.8-1.8,4.8-1.8,6.6,0l34.6,34.6c1.7,1.8,1.7,4.7-.1,6.4Z" style="fill:#fff;"/><path d="M441.3,82c.8,.5,1.5,1.1,2,2s.7,1.8,.7,2.8-.2,2-.7,2.8c-.5,.9-1.2,1.5-2,2s-1.8,.7-2.8,.7-2-.2-2.8-.7-1.5-1.2-2-2-.7-1.8-.7-2.8,.2-1.9,.7-2.8c.5-.8,1.2-1.5,2-2s1.8-.7,2.8-.7c1.1,0,2,.3,2.8,.7Zm-.4,9c.7-.4,1.3-1,1.7-1.8,.4-.7,.6-1.6,.6-2.5s-.2-1.7-.6-2.4-1-1.3-1.7-1.7-1.5-.6-2.5-.6c-.9,0-1.7,.2-2.5,.6-.7,.4-1.3,1-1.7,1.8-.4,.7-.6,1.6-.6,2.4,0,.9,.2,1.7,.6,2.4s1,1.3,1.7,1.7,1.5,.6,2.4,.6c1.1,.2,1.9,0,2.6-.5Zm.1-3.9c-.2,.3-.6,.6-1,.7l1.4,2.2h-1.1l-1.3-2h-1.7v2h-1.1v-6.3h2.5c.8,0,1.4,.2,1.9,.6s.7,.9,.7,1.6c0,.4-.1,.8-.3,1.2Zm-1.1-.3c.3-.2,.4-.5,.4-.9s-.1-.7-.4-.9c-.3-.2-.7-.3-1.2-.3h-1.4v2.5h1.4c.5-.1,.9-.2,1.2-.4Z" style="fill:#fff;"/></svg>